<svg width="24" height="24" viewBox="0 0 24 24" fill="none" xmlns="http://www.w3.org/2000/svg">
<path fill-rule="evenodd" clip-rule="evenodd" d="M18.0002 2.08582L21.9144 6.00003L6.00015 21.9142L2.08594 18L18.0002 2.08582ZM15.6644 7.25003L16.7502 8.33582L19.0859 6.00003L18.0002 4.91424L15.6644 7.25003Z" fill="black"/>
<path d="M10 2L11 0L12 2L14 3L12 4L11 6L10 4L8 3L10 2Z" fill="black"/>
<path d="M19 13L20 11L21 13L23 14L21 15L20 17L19 15L17 14L19 13Z" fill="black"/>
<path d="M5 7L6 5L7 7L9 8L7 9L6 11L5 9L3 8L5 7Z" fill="black"/>
</svg>
